<svg width="38" height="34" viewBox="0 0 38 34" fill="none" xmlns="http://www.w3.org/2000/svg">
<path d="M19 13.75C22.0376 13.75 24.5 11.2876 24.5 8.25C24.5 5.21243 22.0376 2.75 19 2.75C15.9624 2.75 13.5 5.21243 13.5 8.25C13.5 11.2876 15.9624 13.75 19 13.75Z" stroke="#333333" stroke-width="1.5" stroke-miterlimit="10"/>
<path d="M10.6631 18.5617C11.5083 17.0987 12.7237 15.8838 14.1871 15.0392C15.6505 14.1946 17.3104 13.75 19.0001 13.75C20.6897 13.75 22.3496 14.1947 23.813 15.0393C25.2764 15.884 26.4917 17.0988 27.3369 18.5619" stroke="#333333" stroke-width="1.5" stroke-linecap="round" stroke-linejoin="round"/>
<path d="M1.2207 23.8906H2.31445L4.37012 29.374L6.4209 23.8906H7.51465L4.7998 31H3.93066L1.2207 23.8906ZM0.722656 23.8906H1.7627L1.94336 28.6367V31H0.722656V23.8906ZM6.97266 23.8906H8.01758V31H6.79199V28.6367L6.97266 23.8906ZM10.6152 25.7168V31H9.43359V25.7168H10.6152ZM9.35547 24.3301C9.35547 24.151 9.41406 24.0029 9.53125 23.8857C9.65169 23.7653 9.81771 23.7051 10.0293 23.7051C10.2376 23.7051 10.402 23.7653 10.5225 23.8857C10.6429 24.0029 10.7031 24.151 10.7031 24.3301C10.7031 24.5059 10.6429 24.6523 10.5225 24.7695C10.402 24.8867 10.2376 24.9453 10.0293 24.9453C9.81771 24.9453 9.65169 24.8867 9.53125 24.7695C9.41406 24.6523 9.35547 24.5059 9.35547 24.3301ZM17.2119 28.3486H15.3613V27.377H17.2119C17.5342 27.377 17.7946 27.3249 17.9932 27.2207C18.1917 27.1165 18.3366 26.9733 18.4277 26.791C18.5221 26.6055 18.5693 26.3939 18.5693 26.1562C18.5693 25.9316 18.5221 25.7217 18.4277 25.5264C18.3366 25.3278 18.1917 25.1683 17.9932 25.0479C17.7946 24.9274 17.5342 24.8672 17.2119 24.8672H15.7373V31H14.5117V23.8906H17.2119C17.762 23.8906 18.2292 23.9883 18.6133 24.1836C19.0007 24.3757 19.2952 24.6426 19.4971 24.9844C19.6989 25.3229 19.7998 25.7103 19.7998 26.1465C19.7998 26.6055 19.6989 26.9993 19.4971 27.3281C19.2952 27.6569 19.0007 27.9092 18.6133 28.085C18.2292 28.2607 17.762 28.3486 17.2119 28.3486ZM23.042 31.0977C22.6514 31.0977 22.2982 31.0342 21.9824 30.9072C21.6699 30.777 21.403 30.5964 21.1816 30.3652C20.9635 30.1341 20.7959 29.8623 20.6787 29.5498C20.5615 29.2373 20.5029 28.9004 20.5029 28.5391V28.3438C20.5029 27.9303 20.5632 27.556 20.6836 27.2207C20.804 26.8854 20.9717 26.599 21.1865 26.3613C21.4014 26.1204 21.6553 25.9365 21.9482 25.8096C22.2412 25.6826 22.5586 25.6191 22.9004 25.6191C23.278 25.6191 23.6084 25.6826 23.8916 25.8096C24.1748 25.9365 24.4092 26.1156 24.5947 26.3467C24.7835 26.5745 24.9235 26.8464 25.0146 27.1621C25.109 27.4779 25.1562 27.8262 25.1562 28.207V28.71H21.0742V27.8652H23.9941V27.7725C23.9876 27.5609 23.9453 27.3623 23.8672 27.1768C23.7923 26.9912 23.6768 26.8415 23.5205 26.7275C23.3643 26.6136 23.1559 26.5566 22.8955 26.5566C22.7002 26.5566 22.526 26.599 22.373 26.6836C22.2233 26.765 22.098 26.8838 21.9971 27.04C21.8962 27.1963 21.818 27.3851 21.7627 27.6064C21.7106 27.8245 21.6846 28.0703 21.6846 28.3438V28.5391C21.6846 28.7702 21.7155 28.985 21.7773 29.1836C21.8424 29.3789 21.9368 29.5498 22.0605 29.6963C22.1842 29.8428 22.334 29.9583 22.5098 30.043C22.6855 30.1243 22.8857 30.165 23.1104 30.165C23.3936 30.165 23.6458 30.1081 23.8672 29.9941C24.0885 29.8802 24.2806 29.7191 24.4434 29.5107L25.0635 30.1113C24.9495 30.2773 24.8014 30.4368 24.6191 30.5898C24.4368 30.7396 24.2139 30.8617 23.9502 30.9561C23.6898 31.0505 23.387 31.0977 23.042 31.0977ZM27.2559 26.7227V31H26.0791V25.7168H27.2021L27.2559 26.7227ZM28.8721 25.6826L28.8623 26.7764C28.7907 26.7633 28.7126 26.7536 28.6279 26.7471C28.5465 26.7406 28.4652 26.7373 28.3838 26.7373C28.182 26.7373 28.0046 26.7666 27.8516 26.8252C27.6986 26.8805 27.57 26.9619 27.4658 27.0693C27.3649 27.1735 27.2868 27.3005 27.2314 27.4502C27.1761 27.5999 27.1436 27.7676 27.1338 27.9531L26.8652 27.9727C26.8652 27.6406 26.8978 27.333 26.9629 27.0498C27.028 26.7666 27.1257 26.5176 27.2559 26.3027C27.3893 26.0879 27.5553 25.9202 27.7539 25.7998C27.9557 25.6794 28.1885 25.6191 28.4521 25.6191C28.5238 25.6191 28.6003 25.6257 28.6816 25.6387C28.7663 25.6517 28.8298 25.6663 28.8721 25.6826ZM31.123 31H29.9414V25.375C29.9414 24.9486 30.026 24.5889 30.1953 24.2959C30.3678 24.0029 30.6136 23.7799 30.9326 23.627C31.2549 23.474 31.6374 23.3975 32.0801 23.3975C32.3405 23.3975 32.5911 23.4251 32.832 23.4805C33.0762 23.5358 33.3285 23.6058 33.5889 23.6904L33.4082 24.6475C33.2422 24.5921 33.0583 24.54 32.8564 24.4912C32.6546 24.4391 32.4219 24.4131 32.1582 24.4131C31.8034 24.4131 31.5413 24.4945 31.3721 24.6572C31.2061 24.8167 31.123 25.056 31.123 25.375V31ZM32.1826 25.7168V26.5762H29.1309V25.7168H32.1826ZM34.1455 25.7168V31H32.9688V25.7168H34.1455ZM36.7188 23.5V31H35.5371V23.5H36.7188Z" fill="#333333"/>
</svg>
